<?xml version="1.0" encoding="utf-8"?>
<!-- Generator: Adobe Illustrator 16.0.0, SVG Export Plug-In . SVG Version: 6.00 Build 0)  -->
<!DOCTYPE svg PUBLIC "-//W3C//DTD SVG 1.1//EN" "http://www.w3.org/Graphics/SVG/1.1/DTD/svg11.dtd">
<svg version="1.1" id="Layer_1" xmlns="http://www.w3.org/2000/svg" xmlns:xlink="http://www.w3.org/1999/xlink" x="0px" y="0px"
	 width="100px" height="100px" viewBox="0 0 100 100" enable-background="new 0 0 100 100" xml:space="preserve">
<g>
	<path d="M54.256,44.534V20.313L35.068,54.467h9.677c0.552,0,1,0.447,1,1v24.222l19.188-34.154h-9.677
		C54.703,45.534,54.256,45.086,54.256,44.534z M47.745,72.045V55.467c0-1.654-1.346-3-3-3h-6.259l13.77-24.51v16.578
		c0,1.654,1.346,3,3,3h6.259L47.745,72.045z"/>
	<path d="M69.23,43.018c-0.536-0.915-1.528-1.484-2.589-1.484h-8.386V16.492c0-1.365-0.922-2.559-2.24-2.902
		c-0.248-0.065-0.505-0.098-0.762-0.098c-1.08,0-2.081,0.585-2.614,1.531L30.742,54c-0.518,0.924-0.507,2.066,0.028,2.982
		c0.537,0.916,1.528,1.484,2.589,1.484h8.386V83.51c0,1.364,0.921,2.558,2.251,2.905c0.245,0.063,0.497,0.095,0.749,0.095
		c1.083,0,2.084-0.586,2.616-1.53l21.897-38.977C69.776,45.079,69.767,43.937,69.23,43.018z M67.514,45.024L45.617,84
		c-0.18,0.32-0.517,0.51-0.872,0.51c-0.084,0-0.169-0.011-0.253-0.032c-0.44-0.115-0.747-0.513-0.747-0.968V56.467H33.359
		c-0.355,0-0.684-0.188-0.863-0.495c-0.179-0.307-0.183-0.685-0.009-0.995l21.896-38.975c0.224-0.397,0.684-0.593,1.125-0.478
		c0.44,0.115,0.747,0.513,0.747,0.967v27.042h10.386c0.355,0,0.684,0.188,0.863,0.495C67.684,44.335,67.688,44.714,67.514,45.024z"
		/>
</g>
</svg>
