<?xml version="1.0" encoding="utf-8"?>
<!-- Generator: Adobe Illustrator 16.0.0, SVG Export Plug-In . SVG Version: 6.00 Build 0)  -->
<!DOCTYPE svg PUBLIC "-//W3C//DTD SVG 1.1//EN" "http://www.w3.org/Graphics/SVG/1.1/DTD/svg11.dtd">
<svg version="1.1" xmlns="http://www.w3.org/2000/svg" xmlns:xlink="http://www.w3.org/1999/xlink" x="0px" y="0px" width="300px"
	 height="1500px" viewBox="0 0 300 1500" enable-background="new 0 0 300 1500" xml:space="preserve">
<g id="Layer_2" display="none">
	<rect x="-49" y="-3" display="inline" fill="#FF0000" width="439" height="1514"/>
</g>
<g id="Layer_1">
	<path d="M4,2v23h23V2H4z M25,23h-2V6h-2v9.759c0,4.349-2.968,7.063-7.5,7.063c-4.507,0-7.5-2.74-7.5-7.063V4h2v11.732
		c0,3.558,2.256,5.018,5.708,5.018c3.453,0,5.292-1.583,5.292-5.018V6.383V4h6V23z"/>
	<path d="M31.787,93.938l-2.777,2.776c0,0,0-0.251,0,0.464c0,0.507-0.082,0.991-0.2,1.462c-0.065,3.82-1.281,8.885-6.278,12.883
		c-9.829,7.863-20.361,0.925-20.361,0.925c8.329,0,8.329-2.776,8.329-2.776c-1.851,0-5.552-3.701-5.552-3.701
		c0.925,0.926,2.776,0,2.776,0c-4.628-2.777-4.628-5.553-4.628-5.553c0.926,0.925,2.777,0,2.777,0
		c-4.627-3.703-1.851-8.33-1.851-8.33c0.926,4.627,12.957,6.479,12.957,6.479l0.152-0.076c-0.094-0.424-0.152-1.323-0.152-1.775
		c0-3.322,2.693-5.553,6.016-5.553c1.828,0,3.446,0.834,4.549,2.121l0.541-0.27l2.777-1.852l-1.852,3.701L31.787,93.938z"/>
	<path d="M72.287,680.577l-1.839,1.839c0,0,0-0.167,0,0.307c0,0.336-0.054,0.657-0.132,0.968c-0.043,2.53-0.849,5.885-4.158,8.533
		c-6.51,5.208-13.486,0.613-13.486,0.613c5.517,0,5.517-1.839,5.517-1.839c-1.226,0-3.677-2.452-3.677-2.452
		c0.613,0.613,1.839,0,1.839,0c-3.065-1.839-3.065-3.678-3.065-3.678c0.613,0.613,1.839,0,1.839,0
		c-3.065-2.453-1.226-5.518-1.226-5.518c0.613,3.065,8.582,4.291,8.582,4.291l0.101-0.05c-0.062-0.281-0.101-0.876-0.101-1.176
		c0-2.201,1.784-3.678,3.984-3.678c1.211,0,2.283,0.552,3.013,1.405l0.358-0.179l1.839-1.226l-1.227,2.451L72.287,680.577z"/>
	<g>
		<path fill-rule="evenodd" clip-rule="evenodd" d="M28.119,145.386c-0.121-0.7-0.318-1.379-0.625-2.022
			c-0.387-0.81-0.914-1.509-1.631-2.058c-0.902-0.691-1.939-1.033-3.063-1.137c-0.412-0.037-0.828-0.041-1.244-0.007
			c-0.463,0.037-0.914,0.118-1.354,0.263c-0.971,0.311-1.76,0.881-2.395,1.67c-0.145,0.182-0.275,0.376-0.416,0.563
			c-0.02,0.024-0.029,0.061-0.086,0.042c0-0.065-0.004-0.137-0.004-0.207c0-0.584,0-1.17,0-1.754c0-0.07,0.016-0.144-0.033-0.221
			c-0.072,0-0.148,0-0.227,0c-1.613,0-3.223,0-4.832,0c-0.047,0-0.09-0.002-0.137,0c-0.037,0.002-0.074,0.011-0.109,0.016
			c0,0.16,0,0.309,0,0.456c0.004,1.034,0.018,2.067,0.018,3.1c-0.002,2.639-0.004,5.276-0.01,7.914
			c-0.004,0.981-0.01,1.962-0.016,2.942c0,0.481-0.006,0.961-0.006,1.441c-0.002,0.07-0.016,0.144,0.027,0.221
			c0.076,0.002,0.15,0.006,0.229,0.006c1.611,0,3.221,0,4.832,0c0.049,0,0.094,0.001,0.139-0.001
			c0.037-0.003,0.07-0.009,0.111-0.013c0.025-0.097,0.018-0.182,0.018-0.264c0-2.891,0-5.783,0-8.674
			c0-0.189,0.004-0.377,0.016-0.564c0.016-0.273,0.061-0.544,0.168-0.797c0.113-0.28,0.256-0.541,0.438-0.779
			c0.359-0.476,0.809-0.822,1.373-1.016c0.389-0.131,0.789-0.159,1.191-0.131c0.887,0.064,1.553,0.473,1.971,1.266
			c0.146,0.275,0.246,0.571,0.316,0.877c0.109,0.482,0.152,0.975,0.152,1.469c0,2.781,0,5.561,0,8.344c0,0.083,0,0.168,0,0.275
			c0.104,0.004,0.18,0.008,0.256,0.008c1.611,0,3.225,0,4.834,0c0.047,0,0.092,0.002,0.139-0.001
			c0.035-0.003,0.072-0.015,0.119-0.024c0-0.09,0-0.175,0-0.258c0-2.989-0.002-5.979,0-8.968
			C28.279,146.699,28.232,146.04,28.119,145.386z"/>
		<path fill-rule="evenodd" clip-rule="evenodd" d="M8.99,140.821c0-0.057,0.002-0.116,0-0.175c0-0.038-0.006-0.072-0.01-0.115
			c-0.035-0.005-0.061-0.013-0.086-0.013c-1.74,0-3.48,0-5.248,0c-0.002,0.107-0.004,0.191-0.004,0.273c0,5.18,0,10.357,0,15.533
			c0,0.053-0.004,0.105,0,0.156c0.002,0.037,0.008,0.074,0.016,0.125c0.078,0.002,0.145,0.008,0.217,0.008c1.047,0,2.092,0,3.139,0
			c0.584,0,1.17,0.001,1.754-0.001c0.068,0,0.143,0.019,0.209-0.026c0.033-0.088,0.014-0.182,0.014-0.271
			C8.992,151.151,8.99,145.987,8.99,140.821z"/>
		<path fill-rule="evenodd" clip-rule="evenodd" d="M7.652,132.999c-0.283-0.119-0.58-0.182-0.885-0.215
			c-0.557-0.061-1.104-0.012-1.631,0.181c-0.74,0.271-1.295,0.757-1.6,1.497c-0.195,0.463-0.256,0.949-0.184,1.449
			c0.158,1.111,0.773,1.867,1.832,2.234c0.814,0.281,1.637,0.251,2.439-0.059c1.059-0.406,1.709-1.35,1.725-2.604
			c-0.016-0.111-0.025-0.306-0.064-0.497C9.086,134.04,8.549,133.372,7.652,132.999z"/>
	</g>
	<g>
		<path d="M21.383,49.959h2.016l-3.023,10.15c-0.18,0.612-0.324,1.08-0.324,1.62c0,0.504,0.36,0.936,1.044,0.936
			c3.276,0,6.012-3.851,6.012-7.847c0-5.436-4.823-9.107-10.979-9.107c-6.191,0-10.979,4.896-10.979,11.194
			c0,6.407,4.787,11.195,10.979,11.195c4.427,0,7.811-1.368,9.755-3.996h2.268c-2.304,3.959-6.479,6.155-12.022,6.155
			c-7.379,0-13.354-5.975-13.354-13.354c0-7.379,5.976-13.354,13.354-13.354c7.774,0,13.354,4.643,13.354,11.123
			c0,6.227-5.04,10.151-9.287,10.151c-1.44,0-2.34-0.648-2.52-2.124h-0.072c-1.116,1.152-2.376,2.124-4.499,2.124
			c-2.628,0-5.111-2.196-5.111-5.399c0-4.967,3.347-10.151,8.423-10.151c1.764,0,3.348,0.756,4.104,2.952h0.071L21.383,49.959z
			 M13.752,62.665c3.348,0,5.579-4.895,5.579-7.631c0-1.62-1.08-3.6-2.915-3.6c-3.492,0-6.048,4.428-6.048,7.775
			C10.369,61.226,11.809,62.665,13.752,62.665z"/>
	</g>
	<path d="M38,212H28v19H11v7h16.647l0,0h10.357l0,0H56v-7H38V212z M32.426,180.812l-11.88,11.88l-4.345,4.346L4.9,208.338
		l4.393,4.392l23.18-23.18l23.933,23.932l4.347-4.346L32.426,180.812z"/>
	<g>
		<g>
			<polygon fill="#FFFFFF" points="285.875,40.472 270.021,40.472 270.021,7.444 264.853,12.805 264.853,45.66 273.123,45.66 
				273.123,78.688 278.294,73.327 278.294,45.66 285.875,45.66 			"/>
		</g>
	</g>
	<g>
		<g>
			<polygon points="285.875,145.782 270.021,145.782 270.021,112.755 264.853,118.115 264.853,150.971 273.123,150.971 
				273.123,183.998 278.294,178.638 278.294,150.971 285.875,150.971 			"/>
		</g>
	</g>
	<rect x="3" y="286" width="33" height="5"/>
	<rect x="3" y="297" width="33" height="5"/>
	<rect x="3" y="275" width="33" height="5"/>
	<path fill="none" stroke="#FFFFFF" stroke-miterlimit="10" d="M30.16,547.654c-2.312,1.425-5.341,0.704-6.765-1.608l-0.088-0.141
		c-1.423-2.313-0.703-5.341,1.61-6.766l11.211-6.903c2.313-1.423,5.342-0.703,6.765,1.609l0.088,0.143
		c1.424,2.313,0.704,5.34-1.609,6.764L30.16,547.654z"/>
	<path fill="none" stroke="#FFFFFF" stroke-miterlimit="10" d="M8.872,560.764c-2.313,1.423-5.341,0.703-6.765-1.609l-0.088-0.143
		c-1.424-2.313-0.704-5.34,1.609-6.764l10.359-6.379c2.313-1.424,5.341-0.703,6.765,1.608l0.087,0.143
		c1.423,2.313,0.704,5.34-1.609,6.765L8.872,560.764z"/>
	<path fill="#FFFFFF" d="M13.92,553.545c-0.706,0.435-1.629,0.215-2.064-0.491l0,0c-0.435-0.705-0.214-1.63,0.491-2.063
		l17.882-11.012c0.706-0.433,1.63-0.213,2.064,0.492l0,0c0.435,0.706,0.214,1.629-0.491,2.063L13.92,553.545z"/>
	<line fill="none" stroke="#FFFFFF" stroke-miterlimit="10" x1="2" y1="370.5" x2="59" y2="370.5"/>
	<line fill="none" stroke="#FFFFFF" stroke-miterlimit="10" x1="30.5" y1="342" x2="30.5" y2="399"/>
	<path fill="none" stroke="#FFFFFF" stroke-width="2" stroke-linecap="round" stroke-miterlimit="10" d="M20.357,420.155
		c0,0-6.423-3.947-12.828-0.135s-7.433,11.675-5.502,15.577"/>
	<g>
		<path fill="#FFFFFF" d="M13,608.078c0-2.75,2.199-3.875,4.58-2.5l12.741,7.283c2.381,1.375,2.444,3.625,0.063,5l-12.835,7.284
			c-2.381,1.375-4.549,0.25-4.549-2.5V608.078z"/>
	</g>
	<line fill="none" stroke="#FFFFFF" stroke-linecap="square" stroke-miterlimit="10" x1="1" y1="479.5" x2="42" y2="479.5"/>
	<line fill="none" stroke="#FFFFFF" stroke-linecap="square" stroke-miterlimit="10" x1="21.5" y1="459" x2="21.5" y2="500"/>
	<line fill="none" stroke="#000000" stroke-miterlimit="10" x1="246.004" y1="343.004" x2="278.996" y2="375.996"/>
	<line fill="none" stroke="#000000" stroke-miterlimit="10" x1="278.996" y1="343.004" x2="246.004" y2="375.996"/>
	<line fill="none" stroke="#FCFCFC" stroke-miterlimit="10" x1="123.371" y1="346.097" x2="134.627" y2="362.354"/>
	<line fill="none" stroke="#FCFCFC" stroke-miterlimit="10" x1="122.371" y1="377.354" x2="134.627" y2="362.097"/>
	<line fill="none" stroke="#000000" stroke-miterlimit="10" x1="184.371" y1="346.097" x2="195.627" y2="362.354"/>
	<line fill="none" stroke="#000000" stroke-miterlimit="10" x1="183.371" y1="377.354" x2="195.627" y2="362.097"/>
	<line fill="none" stroke="#FCFCFC" stroke-miterlimit="10" x1="133.627" y1="461.354" x2="122.371" y2="445.098"/>
	<line fill="none" stroke="#FCFCFC" stroke-miterlimit="10" x1="134.627" y1="430.098" x2="122.371" y2="445.354"/>
	<circle cx="17.167" cy="694.5" r="3.167"/>
	<circle cx="17.167" cy="678.5" r="3.167"/>
	<circle cx="31.167" cy="686.5" r="3.167"/>
	<line fill="none" stroke="#000000" stroke-miterlimit="10" x1="19.001" y1="693.5" x2="29.167" y2="687.834"/>
	<line fill="none" stroke="#000000" stroke-miterlimit="10" x1="29.501" y1="686" x2="18.167" y2="679.667"/>
	<polygon fill="none" stroke="#000000" stroke-miterlimit="10" points="8.5,847.285 93,798.568 177.5,847.285 177.5,944.716 
		93,993.431 8.5,944.716 	"/>
	<polygon fill="none" stroke="#FFFFFF" stroke-miterlimit="10" points="8.5,1059.285 93,1010.568 177.5,1059.285 177.5,1156.716 
		93,1205.431 8.5,1156.716 	"/>
	<line fill="none" stroke="#000000" stroke-miterlimit="10" x1="278.127" y1="418.598" x2="261.871" y2="429.854"/>
	<line fill="none" stroke="#000000" stroke-miterlimit="10" x1="246.871" y1="417.598" x2="262.127" y2="429.854"/>
	<path d="M95.925,676.853h-2.773c0,0-4.375-0.363-4.375,3.937c0,0.919,0,2.519,0,2.519h-1.941l0.008,2.646h1.967l0.043,9.044h3.908
		v-9.044h2.582l0.551-2.646h-3.166v-2.114c0,0-0.032-1.127,1.361-1.127h1.808L95.925,676.853z"/>
	<g>
		<g>
			<path fill-rule="evenodd" clip-rule="evenodd" fill="none" d="M131.039,698.546c-7.828,0-15.659,0-23.492,0
				c0-7.831,0-15.661,0-23.496c7.828,0,15.656,0,23.492,0C131.039,682.879,131.039,690.712,131.039,698.546z M121.572,677.545
				c-0.168,0-0.258,0-0.348,0c-1.652,0-3.305-0.009-4.957,0.006c-0.487,0.004-0.979,0.045-1.458,0.126
				c-1.011,0.17-1.917,0.578-2.626,1.341c-0.942,1.013-1.231,2.226-1.016,3.568c0.193,1.207,0.83,2.121,1.907,2.708
				c0.732,0.399,1.526,0.568,2.356,0.585c0.086,0.002,0.172,0.02,0.263,0.03c-0.351,1.316-0.347,1.333,0.451,2.446
				c-0.049,0.009-0.091,0.021-0.135,0.025c-0.091,0.008-0.183,0.017-0.274,0.018c-0.982,0.019-1.951,0.13-2.891,0.426
				c-0.945,0.298-1.788,0.757-2.369,1.595c-0.785,1.13-0.933,2.988,0.354,4.144c0.599,0.538,1.294,0.889,2.053,1.125
				c1.344,0.417,2.72,0.475,4.105,0.314c1.059-0.122,2.061-0.428,2.955-1.034c2.205-1.493,2.197-4.229,0.679-5.764
				c-0.465-0.471-1.006-0.865-1.505-1.302c-0.339-0.296-0.697-0.578-0.991-0.915c-0.438-0.502-0.433-0.982,0.005-1.484
				c0.274-0.314,0.603-0.583,0.922-0.855c1.027-0.877,1.578-1.948,1.385-3.331c-0.136-0.969-0.508-1.804-1.333-2.388
				c-0.034-0.024-0.062-0.055-0.143-0.126c0.455,0,0.849,0.002,1.242-0.002c0.071-0.001,0.167-0.007,0.21-0.051
				C120.788,678.37,121.154,677.982,121.572,677.545z M126.265,684.027c0-0.828,0-1.641,0-2.481c0.84,0,1.653,0,2.486,0
				c0-0.354-0.009-0.682,0.004-1.01c0.007-0.176-0.059-0.22-0.225-0.218c-0.657,0.008-1.315,0.003-1.973,0.002
				c-0.089,0-0.179-0.007-0.296-0.013c0-0.84,0-1.661,0-2.485c-0.421,0-0.814,0-1.23,0c0,0.107,0,0.197,0,0.288
				c0,0.642-0.008,1.285,0.004,1.927c0.004,0.215-0.052,0.294-0.279,0.289c-0.65-0.014-1.3-0.005-1.95-0.004
				c-0.089,0-0.178,0.008-0.275,0.012c0,0.414,0,0.807,0,1.228c0.835,0,1.656,0,2.511,0c0,0.841,0,1.653,0,2.465
				C125.464,684.027,125.851,684.027,126.265,684.027z"/>
			<path fill-rule="evenodd" clip-rule="evenodd" d="M121.572,677.545c-0.418,0.437-0.784,0.825-1.16,1.204
				c-0.043,0.044-0.139,0.05-0.21,0.051c-0.393,0.005-0.787,0.002-1.242,0.002c0.081,0.072,0.109,0.103,0.143,0.126
				c0.825,0.584,1.197,1.419,1.333,2.388c0.193,1.383-0.357,2.453-1.385,3.331c-0.319,0.272-0.647,0.541-0.922,0.855
				c-0.438,0.502-0.443,0.982-0.005,1.484c0.294,0.337,0.652,0.619,0.991,0.915c0.5,0.437,1.041,0.832,1.505,1.302
				c1.519,1.536,1.526,4.271-0.679,5.764c-0.894,0.606-1.896,0.912-2.955,1.034c-1.386,0.161-2.762,0.103-4.105-0.314
				c-0.759-0.236-1.455-0.587-2.053-1.125c-1.287-1.155-1.139-3.013-0.354-4.144c0.582-0.838,1.424-1.297,2.369-1.595
				c0.94-0.296,1.909-0.407,2.891-0.426c0.091-0.001,0.183-0.01,0.274-0.018c0.043-0.004,0.086-0.016,0.135-0.025
				c-0.798-1.113-0.802-1.13-0.451-2.446c-0.09-0.011-0.176-0.028-0.263-0.03c-0.83-0.017-1.625-0.186-2.356-0.585
				c-1.077-0.588-1.714-1.501-1.907-2.708c-0.215-1.342,0.074-2.555,1.016-3.568c0.709-0.763,1.616-1.17,2.626-1.341
				c0.479-0.081,0.971-0.122,1.458-0.126c1.652-0.015,3.305-0.005,4.957-0.006C121.313,677.545,121.404,677.545,121.572,677.545z
				 M115.822,695.078c0.591,0.005,1.249-0.075,1.884-0.292c0.917-0.313,1.65-0.84,1.969-1.801c0.402-1.216-0.081-2.498-1.207-3.254
				c-0.707-0.475-1.497-0.679-2.336-0.708c-1.103-0.039-2.126,0.217-3.02,0.882c-1.641,1.22-1.613,3.245,0.058,4.43
				C113.939,694.881,114.81,695.093,115.822,695.078z M118.396,682.559c-0.09-0.467-0.148-0.995-0.298-1.494
				c-0.284-0.945-0.784-1.76-1.647-2.295c-1.15-0.712-2.488-0.327-3.036,0.904c-0.59,1.326-0.393,2.616,0.327,3.834
				c0.456,0.772,1.12,1.307,2.007,1.527c1.149,0.286,2.127-0.264,2.457-1.402C118.3,683.308,118.327,682.962,118.396,682.559z"/>
			<path fill-rule="evenodd" clip-rule="evenodd" d="M126.265,684.027c-0.414,0-0.801,0-1.223,0c0-0.812,0-1.624,0-2.465
				c-0.855,0-1.675,0-2.511,0c0-0.421,0-0.814,0-1.228c0.097-0.004,0.186-0.012,0.275-0.012c0.65-0.001,1.3-0.01,1.95,0.004
				c0.228,0.005,0.283-0.074,0.279-0.289c-0.012-0.642-0.004-1.285-0.004-1.927c0-0.09,0-0.181,0-0.288c0.417,0,0.809,0,1.23,0
				c0,0.825,0,1.646,0,2.485c0.117,0.005,0.207,0.013,0.296,0.013c0.658,0.001,1.315,0.005,1.973-0.002
				c0.167-0.002,0.232,0.042,0.225,0.218c-0.013,0.328-0.004,0.655-0.004,1.01c-0.833,0-1.646,0-2.486,0
				C126.265,682.386,126.265,683.199,126.265,684.027z"/>
			<path fill-rule="evenodd" clip-rule="evenodd" fill="none" d="M115.822,695.078c-1.013,0.015-1.883-0.197-2.653-0.744
				c-1.67-1.185-1.699-3.21-0.058-4.43c0.894-0.665,1.917-0.92,3.02-0.882c0.84,0.029,1.63,0.233,2.336,0.708
				c1.126,0.756,1.609,2.038,1.207,3.254c-0.318,0.961-1.052,1.488-1.969,1.801C117.071,695.003,116.413,695.083,115.822,695.078z"
				/>
			<path fill-rule="evenodd" clip-rule="evenodd" fill="none" d="M118.396,682.559c-0.069,0.403-0.096,0.749-0.19,1.075
				c-0.33,1.138-1.308,1.688-2.457,1.402c-0.888-0.221-1.551-0.755-2.007-1.527c-0.72-1.218-0.917-2.509-0.327-3.834
				c0.548-1.231,1.886-1.616,3.036-0.904c0.863,0.535,1.363,1.35,1.647,2.295C118.247,681.564,118.305,682.092,118.396,682.559z"/>
		</g>
	</g>
</g>
</svg>
